:FULLY-SPECIFIED
:FORCE-ALL-JOINTS-BE-3DOF
:DEGREES
1325
root -1.75275 14.4502 8.17207 351.846 32.1601 363.259
lfemur 1.75013 4.3057 -17.1464
ltibia 54.7214 0 0
lfoot -28.2746 29.2772 0
ltoes -18.53 0 0
rfemur -45.9058 -6.75209 3.05565
rtibia 29.8145 0 0
rfoot 12.7543 5.52371 0
rtoes -8.05559 0 0
lowerback 13.8418 0.429093 -13.0701
upperback -1.31861 -1.66045 -0.28836
thorax -8.94001 -0.155813 7.43607
lowerneck -0.617984 -10.9913 -11.693
upperneck 9.82999 -15.4783 10.8273
head 4.80148 -7.64342 4.31606
lclavicle 5.74985e-14 3.89618e-14 0
lhumerus -73.6801 -18.7078 106.401
lradius 100.342 0 0
lwrist 63.775 0 0
lhand -13.1683 29.239 0
lfingers 7.12502 0 0
lthumb 12.931 -301.182 0
rclavicle 5.74985e-14 3.89618e-14 0
rhumerus 63.3748 -2.57 -31.9511
rradius 78.0289 0 0
rwrist 30.5404 0 0
rhand -38.671 -40.7751 0
rfingers 7.12502 0 0
rthumb -11.6864 -70.4291 0
1326
root -1.85616 14.3247 8.39616 350.693 34.1457 363.342
lfemur 2.24376 4.072 -16.7333
ltibia 54.2901 0 0
lfoot -28.2876 30.1123 0
ltoes -18.4775 0 0
rfemur -46.3626 -7.48977 3.34378
rtibia 30.4623 0 0
rfoot 13.1598 5.8919 0
rtoes -8.24827 0 0
lowerback 16.8339 0.55452 -13.755
upperback -1.13284 -2.09608 -0.45524
thorax -10.346 -0.231402 7.83259
lowerneck -0.127438 -11.3868 -11.8384
upperneck 8.79124 -16.0436 11.4347
head 4.53092 -7.9304 4.51727
lclavicle 7.50412e-15 1.19271e-14 0
lhumerus -75.7681 -17.3086 105.529
lradius 101.731 0 0
lwrist 62.9403 0 0
lhand -12.5344 28.477 0
lfingers 7.12502 0 0
lthumb 13.542 -301.983 0
rclavicle 7.50412e-15 1.19271e-14 0
rhumerus 63.0701 -4.68318 -30.35
rradius 78.8716 0 0
rwrist 31.7255 0 0
rhand -39.0595 -40.6443 0
rfingers 7.12502 0 0
rthumb -12.061 -70.2767 0
1327
root -1.87376 14.243 8.65248 351.936 33.8852 364.042
lfemur 2.78956 3.81359 -16.2765
ltibia 53.8293 0 0
lfoot -28.3007 30.9573 0
ltoes -18.3268 0 0
rfemur -46.8343 -8.25155 3.64133
rtibia 31.3325 0 0
rfoot 13.4117 6.12069 0
rtoes -8.40399 0 0
lowerback 16.062 0.828815 -14.3709
upperback -1.32181 -1.77164 -0.752711
thorax -10.1964 -0.0560566 7.74248
lowerneck 0.344053 -11.6521 -11.9069
upperneck 7.92886 -16.4117 11.7802
head 4.27042 -8.12855 4.64439
lclavicle 2.64384e-14 1.27222e-14 0
lhumerus -77.3213 -15.4281 103.973
lradius 103.176 0 0
lwrist 61.1007 0 0
lhand -11.422 26.5559 0
lfingers 7.12502 0 0
lthumb 14.6139 -303.979 0
rclavicle 2.64384e-14 1.27222e-14 0
rhumerus 62.7541 -6.28114 -29.4077
rradius 79.803 0 0
rwrist 32.0383 0 0
rhand -39.1579 -41.0794 0
rfingers 7.12502 0 0
rthumb -12.1559 -70.7062 0
1328
root -1.87162 14.1918 8.90018 353.308 33.0778 364.356
lfemur 3.37593 3.53598 -15.7858
ltibia 53.3454 0 0
lfoot -28.3138 31.8023 0
ltoes -18.0884 0 0
rfemur -47.3159 -9.02939 3.94516
rtibia 32.404 0 0
rfoot 13.4983 6.19933 0
rtoes -8.51937 0 0
lowerback 14.5887 1.10008 -14.4824
upperback -1.59671 -1.22435 -0.987983
thorax -9.79573 0.18356 7.37849
lowerneck 0.782239 -11.8109 -11.8269
upperneck 7.47864 -16.6357 11.8229
head 4.08644 -8.2567 4.66403
lclavicle -5.89397e-14 -3.57812e-14 0
lhumerus -78.4069 -13.6892 102.022
lradius 104.585 0 0
lwrist 60.7087 0 0
lhand -9.25055 28.4115 0
lfingers 7.12502 0 0
lthumb 16.7052 -302.287 0
rclavicle -5.89397e-14 -3.57812e-14 0
rhumerus 62.3378 -7.55767 -28.9439
rradius 80.6295 0 0
rwrist 31.8208 0 0
rhand -39.5817 -41.314 0
rfingers 7.12502 0 0
rthumb -12.5645 -70.9162 0
1329
root -1.86577 14.2029 9.11508 354.519 31.8263 364.2
lfemur 3.99128 3.24465 -15.2708
ltibia 52.8451 0 0
lfoot -28.3268 32.6374 0
ltoes -17.7725 0 0
rfemur -47.8025 -9.81527 4.25212
rtibia 33.6555 0 0
rfoot 13.4242 6.20334 0
rtoes -8.59106 0 0
lowerback 13.2781 1.43225 -14.0079
upperback -1.9627 -0.520957 -1.1195
thorax -9.61503 0.491432 6.79182
lowerneck 0.982217 -11.9951 -11.4784
upperneck 7.35023 -16.8509 11.3445
head 3.97017 -8.37639 4.47014
lclavicle 2.10712e-14 -1.19271e-14 0
lhumerus -79.2431 -12.2229 100.65
lradius 105.882 0 0
lwrist 62.1407 0 0
lhand -9.55163 30.1045 0
lfingers 7.12502 0 0
lthumb 16.4154 -300.57 0
rclavicle 2.10712e-14 -1.19271e-14 0
rhumerus 62.0772 -8.63466 -28.8781
rradius 81.2634 0 0
rwrist 31.3317 0 0
rhand -40.1383 -40.8325 0
rfingers 7.12502 0 0
rthumb -13.1011 -70.401 0
1330
root -1.84394 14.1483 9.31333 354.805 29.8074 363.95
lfemur 4.62402 2.94508 -14.7413
ltibia 52.335 0 0
lfoot -28.3395 33.4524 0
ltoes -17.3894 0 0
rfemur -48.2891 -10.6011 4.55908
rtibia 35.0659 0 0
rfoot 13.2096 6.21493 0
rtoes -8.61571 0 0
lowerback 12.5842 2.1034 -13.1569
upperback -2.04484 0.607542 -1.2329
thorax -9.53186 0.977159 5.94627
lowerneck 1.23702 -12.0384 -11.3764
upperneck 7.05788 -16.8905 11.1599
head 3.82049 -8.41063 4.42291
lclavicle -3.70733e-14 2.22639e-14 0
lhumerus -79.4468 -11.1333 99.9165
lradius 106.506 0 0
lwrist 64.619 0 0
lhand -11.0235 29.7845 0
lfingers 7.12502 0 0
lthumb 14.9978 -300.779 0
rclavicle -3.70733e-14 2.22639e-14 0
rhumerus 61.8327 -9.45098 -29.2459
rradius 81.7985 0 0
rwrist 31.0775 0 0
rhand -40.753 -40.158 0
rfingers 7.12502 0 0
rthumb -13.6936 -69.6875 0
1331
root -1.83959 14.0857 9.45963 355.686 28.9535 364.103
lfemur 5.26256 2.64278 -14.207
ltibia 51.8215 0 0
lfoot -28.3517 34.2373 0
ltoes -16.9495 0 0
rfemur -48.7707 -11.379 4.86291
rtibia 36.6139 0 0
rfoot 12.8663 6.23349 0
rtoes -8.60158 0 0
lowerback 12.1 2.33911 -12.6599
upperback -2.15329 1.05997 -1.31449
thorax -9.44545 1.16323 5.48597
lowerneck 0.976402 -12.0133 -11.3387
upperneck 7.08107 -16.7891 10.6968
head 3.81556 -8.36324 4.27174
lclavicle -9.19379e-15 1.59028e-15 0
lhumerus -78.8329 -10.1676 99.3882
lradius 106.344 0 0
lwrist 64.3537 0 0
lhand -9.40009 32.4838 0
lfingers 7.12502 0 0
lthumb 16.5613 -298.203 0
rclavicle -9.19379e-15 1.59028e-15 0
rhumerus 61.9918 -10.2069 -29.6854
rradius 82.3097 0 0
rwrist 30.7208 0 0
rhand -41.314 -39.4137 0
rfingers 7.12502 0 0
rthumb -14.2343 -68.906 0
1332
root -1.83115 14.0232 9.60085 355.872 27.7 364.145
lfemur 5.8953 2.34321 -13.6775
ltibia 51.3114 0 0
lfoot -28.3632 34.9821 0
ltoes -16.4631 0 0
rfemur -49.2424 -12.1408 5.16046
rtibia 38.2785 0 0
rfoot 12.406 6.25837 0
rtoes -8.56069 0 0
lowerback 12.0785 2.78001 -12.0914
upperback -2.0569 1.74427 -1.32269
thorax -9.43104 1.45425 5.01603
lowerneck 0.987933 -12.0345 -11.3222
upperneck 6.68299 -16.7593 10.4027
head 3.6639 -8.35956 4.19732
lclavicle 7.93151e-14 -1.03368e-14 0
lhumerus -78.009 -9.8451 99.8766
lradius 105.84 0 0
lwrist 61.254 0 0
lhand -9.02694 34.9099 0
lfingers 7.12502 0 0
lthumb 16.9205 -295.807 0
rclavicle 7.93151e-14 -1.03368e-14 0
rhumerus 62.2389 -10.9338 -30.1082
rradius 82.6144 0 0
rwrist 30.2163 0 0
rhand -41.862 -37.9998 0
rfingers 7.12502 0 0
rthumb -14.7623 -67.4541 0
